<?xml version="1.0" encoding="UTF-8"?>
<!DOCTYPE svg PUBLIC "-//W3C//DTD SVG 1.1//EN" "http://www.w3.org/Graphics/SVG/1.1/DTD/svg11.dtd">
<svg version="1.1" xmlns="http://www.w3.org/2000/svg" xmlns:xlink="http://www.w3.org/1999/xlink" x="0" y="0" width="500" height="500" viewBox="0, 0, 500, 500">
  <g id="Background">
    <g>
      <path d="M250,474 C126.288,474 26,373.712 26,250 C26,126.288 126.288,26 250,26 C373.712,26 474,126.288 474,250 C474,373.712 373.712,474 250,474 z" fill="#FFFFFF"/>
      <path d="M250,474 C126.288,474 26,373.712 26,250 C26,126.288 126.288,26 250,26 C373.712,26 474,126.288 474,250 C474,373.712 373.712,474 250,474 z" fill-opacity="0" stroke="#000000" stroke-width="1"/>
    </g>
  </g>
  <g id="Logo">
    <g id="Flaggen">
      <path d="M327.458,421.123 L418.978,167.843 L411.57,163.485 C389.342,143.437 379.752,130.797 356.216,121.644 C320.013,107.563 289.968,135.154 259.022,143.437 C211.473,156.161 167.705,152.834 127.607,126.248 C123.299,123.391 121.818,120.585 118.454,116.658 C90.124,148.042 68.237,188.438 64.013,235.139 C63.89,236.503 64.226,237.273 64.449,238.624 C74.038,246.469 143.093,311.289 239.416,276.857 C278.372,262.932 304.357,278.599 337.919,299.521 C343.379,302.926 343.045,302.871 346.199,305.186 L304.793,430.711 L315.69,427.661 L327.458,421.123" fill="#231F20" id="path22"/>
      <path d="M297.385,286.88 L242.773,437.729 C240.076,437.84 238.543,437.859 235.856,437.613 C231.065,437.174 228.342,436.578 223.798,434.998 L251.62,352.694 L247.261,349.643 C231.135,343.542 223.852,338.347 202.369,342.234 C156.605,350.515 96.768,329.128 74.388,282.334 C69.594,272.309 66.93,267.704 65.32,257.533 C64.659,253.344 64.445,250.934 64.449,246.693 C108.461,283.131 152.966,301.575 213.701,291.24 C242.239,286.384 260.433,271.459 287.359,282.087 C291.391,283.68 293.627,284.721 297.385,286.88" fill="#ED1C24" id="path24"/>
      <path d="M357.069,288.144 C351.001,286.517 346.563,282.038 343.364,274.309 C340.98,268.55 340.042,263.914 338.96,252.552 C337.994,242.405 337.65,240.426 335.883,234.825 L334.346,229.956 L333.204,228.913 C332.576,228.338 331.998,227.899 331.92,227.937 C331.676,228.052 329.853,232.768 328.839,235.906 C326.63,242.75 326.161,248.912 327.457,254.048 L327.959,256.035 L326.736,256.762 C324.273,258.226 324.202,258.23 323.341,256.943 C322.19,255.224 320.8,250.418 320.783,248.1 C320.759,244.956 321.526,240.279 322.987,234.651 C324.609,228.404 325.425,223.629 325.355,220.797 C325.299,218.478 325.361,218.403 328.429,217.096 L330.558,216.19 L332.023,217.909 C335.51,222.001 337.34,225.093 339.419,230.409 C341.795,236.481 343.038,242.203 345.089,256.501 C346.868,268.893 346.804,268.618 348.71,272.006 C352.002,277.857 354.818,280.934 358.857,283.091 C359.83,283.612 359.885,283.699 360.236,285.295 C360.438,286.208 360.593,287.244 360.582,287.596 C360.552,288.605 359.439,288.778 357.069,288.144 z M325.88,270.94 L324.744,271.222 L324.532,270.166 C324.206,268.545 324.758,266.914 326.082,265.586 C327.109,264.557 327.65,264.264 331.141,262.841 C333.291,261.965 335.473,261.097 335.991,260.913 L336.933,260.578 L337.755,262.967 C338.727,265.791 339.315,265.151 333.027,268.115 C328.605,270.2 328.164,270.374 325.88,270.94 z M347.516,259.881 C347.022,259.123 346.72,257.38 346.887,256.243 C347.086,254.882 348.181,252.573 349.725,250.253 C351.316,247.861 352.529,245.293 352.738,243.867 C353.188,240.799 351.134,231.869 348.995,227.596 C346.081,221.776 340.586,216.072 334.92,212.986 C333.965,212.466 333.147,211.93 333.1,211.793 C333.053,211.657 333.838,210.009 334.845,208.131 C336.136,205.725 336.75,204.817 336.927,205.055 C337.621,205.989 344.527,212.386 345.932,213.396 C348.97,215.581 352.392,216.706 355.292,216.473 C355.968,216.42 357.006,216.392 357.597,216.413 C359.155,216.468 361.017,215.74 363.94,213.933 C368.315,211.228 369.931,211.013 371.791,212.884 C373.333,214.436 373.266,214.826 371.178,216.432 C367.516,219.246 362.081,221.185 356.173,221.784 C354.352,221.968 353.717,222.123 353.573,222.419 C353.356,222.863 354.086,225.041 355.61,228.498 C356.465,230.438 356.707,231.326 357.07,233.865 C358.176,241.581 357.287,247.814 354.271,253.508 C353.081,255.754 352.592,256.407 351.554,257.136 C350.857,257.625 349.75,258.575 349.093,259.247 L347.899,260.469 L347.516,259.881 z M317.935,220.332 C317.517,220.349 316.69,220.253 316.1,220.12 C315.219,219.921 314.974,219.726 314.736,219.037 L314.446,218.195 L316.09,217.442 C320.196,215.564 323.144,212.979 325.592,209.112 C328.204,204.986 329.895,199.754 331.987,189.323 C332.66,185.966 333.17,184.097 333.44,183.998 C333.945,183.813 335.559,184.739 336.055,185.501 C336.855,186.728 337.146,193.864 336.573,198.205 C335.468,206.59 331.153,213.523 324.338,217.863 C322.442,219.07 319.311,220.279 317.935,220.332 z M191.167,260.038 L150.302,273.965 L149.28,273.663 C147.994,273.282 145.316,270.623 143.656,268.079 C140.792,263.69 138.279,258.672 135.413,251.611 C134.336,248.958 131.97,243.241 130.155,238.906 C126.551,230.299 124.694,224.774 122.558,216.296 C119.333,203.5 118.686,195.383 120.683,192.805 C121.232,192.096 128.515,189.082 152.298,179.721 C174.669,170.917 199.484,163.278 214.031,160.718 C217.312,160.142 218.034,160.382 220.569,162.896 C223.133,165.437 225.196,168.617 226.769,172.453 C228.48,176.628 228.727,177.671 228.104,178.091 C227.307,178.629 224.477,179.534 223.889,179.44 C223.039,179.303 221.962,177.848 220.437,174.778 C217.201,168.263 215.444,167.075 209.87,167.632 C203.644,168.254 194.713,170.761 177.296,176.776 C160.368,182.622 147.469,187.646 134.754,193.346 C131.612,194.755 130.745,195.249 129.915,196.105 C127.762,198.324 126.877,202.081 127.303,207.194 C127.629,211.112 128.259,213.541 131.97,225.199 C137.306,241.96 140.711,249.795 146.05,257.589 C149.276,262.3 151.076,263.656 154.691,264.1 C158.712,264.593 157.343,264.998 191.499,253.225 C221.103,243.022 230.815,239.47 234.442,237.522 C237.818,235.708 238.59,231.295 237.007,222.872 C236.268,218.943 236.256,218.694 236.761,217.793 C237.785,215.961 239.778,215.453 241.122,216.68 C242.33,217.782 243.687,222.223 244.299,227.084 C245.087,233.35 245.328,237.693 244.942,238.693 C244.19,240.646 240.746,242.843 235.153,244.94 C233.437,245.583 213.643,252.377 191.167,260.038 z M304.647,216.336 C302.865,216.496 301.694,216.304 300.122,215.593 L298.841,215.014 L299.266,214.333 C299.925,213.28 301.726,212.105 305.169,210.486 C306.904,209.671 308.776,208.662 309.329,208.245 C315.417,203.659 318.748,199.448 322.318,191.822 C324.066,188.091 327.264,179.248 327.306,178.029 C327.315,177.782 327.725,177.5 328.432,177.257 C329.731,176.81 329.678,176.661 329.739,180.885 C329.878,190.423 326.519,199.513 319.951,207.367 C318.475,209.134 318.159,209.363 312.874,212.511 C306.927,216.053 306.712,216.152 304.647,216.336 z M181.074,252.945 C181.099,252.229 185.926,236.211 187.101,232.943 C189.522,226.215 193.474,217.598 195.255,215.168 C196.58,213.359 199.316,211.305 202.212,209.945 C205.662,208.325 235.119,198.198 258.065,190.743 C277.532,184.419 276.986,184.557 283.109,184.405 C285.006,184.357 286.588,184.254 286.627,184.176 C286.666,184.097 286.248,183.734 285.699,183.368 C284.409,182.509 281.987,181.893 279.656,181.829 C275.761,181.725 274.565,182.048 254.769,188.538 C236.92,194.391 228.865,196.953 207.393,203.611 L197.333,206.73 L195.602,206.502 C192.553,206.1 189.685,204.528 174.995,195.204 C167.194,190.254 160.791,186.142 160.765,186.067 C160.678,185.814 166.505,184.324 166.962,184.483 C167.212,184.57 171.05,187.112 175.488,190.131 C185.048,196.633 187.818,198.33 191.804,200.128 C195.751,201.908 197.036,202.238 199.033,201.989 C202.88,201.509 212.696,198.326 234.407,190.52 C259.575,181.47 268.114,178.734 272.399,178.345 C275.82,178.036 280.157,178.047 282.977,178.373 C284.168,178.511 285.171,178.565 285.205,178.492 C285.36,178.176 283.889,177.11 282.348,176.422 C277.516,174.261 271.337,174.005 264.292,175.675 C261.469,176.343 245.765,181.61 235.613,185.294 C232.443,186.443 226.107,188.671 221.533,190.242 C214.062,192.809 212.88,193.151 209.919,193.609 C205.996,194.216 201.41,194.313 198.532,193.849 C196.806,193.57 196.284,193.352 195.502,192.578 C193.253,190.354 190.601,183.104 189.759,176.879 L189.568,175.465 L191.565,174.777 C192.665,174.399 193.591,174.111 193.625,174.138 C193.659,174.166 194.715,176.94 195.972,180.307 C198.473,187.004 198.701,187.395 200.823,188.606 C202.37,189.489 203.18,189.567 205.645,189.072 C210.864,188.026 214.724,186.819 232.898,180.557 C244.113,176.692 253.416,173.609 255.287,173.137 C264.065,170.921 271.478,170.274 278.417,171.119 C281.782,171.529 282.183,171.652 284.989,173.127 C290.27,175.902 295.904,180.1 299.663,184.063 L301.376,185.868 L300.757,184.364 C299.374,181.01 291.456,174.398 280.127,167.137 C278.016,165.784 276.259,164.588 276.221,164.481 C276.097,164.119 276.999,163.117 277.653,162.892 C278.804,162.495 282.461,163.477 284.392,164.7 C294.239,170.94 300.954,176.473 304.984,181.667 C305.886,182.828 306.988,183.968 307.434,184.199 L308.242,184.62 L308.742,183.595 L309.242,182.57 L307.813,180.539 C304.622,176.001 301.961,173.433 292.455,165.712 C285.203,159.821 285.145,159.748 287.186,159.046 C288.068,158.741 288.687,158.788 290.549,159.295 C291.803,159.636 293.059,159.996 293.338,160.095 C294.159,160.385 302.153,167.205 305.125,170.152 C306.628,171.641 308.717,174.037 309.769,175.476 C312.556,179.291 312.562,179.294 313.563,177.541 C314.202,176.42 314.203,176.37 313.585,175.053 C312.144,171.978 308.336,166.88 304.554,162.959 C303.498,161.866 302.583,160.82 302.519,160.635 C302.455,160.449 302.605,159.816 302.851,159.229 C303.284,158.201 303.331,158.167 304.147,158.286 C305.527,158.488 308.293,159.992 309.704,161.309 C310.428,161.984 312.421,164.495 314.133,166.89 C315.845,169.285 317.336,171.212 317.447,171.175 C317.559,171.136 317.861,170.505 318.122,169.772 C319.322,166.389 319.961,165.756 321.407,166.517 C322.341,167.01 322.682,167.957 322.682,170.076 C322.683,172.266 322.895,172.799 323.804,172.887 C324.212,172.926 324.71,172.901 324.912,172.831 C325.407,172.662 325.598,173.328 325.598,175.23 C325.6,180.856 323.396,186.579 318.895,192.64 C314.619,198.397 308.185,203.291 301.398,205.946 C298.032,207.264 295.909,207.552 293.813,206.974 C292.202,206.531 291.886,205.764 292.809,204.541 C293.817,203.203 295.41,202.193 298.933,200.655 C309.871,195.878 316.977,188.859 320.585,179.264 C321.152,177.759 321.154,177.693 320.613,178.393 C314.673,186.07 307.577,192.626 301.629,195.932 C299.845,196.923 298.458,197.479 295.563,198.366 C291.584,199.583 289.075,199.919 285.945,199.653 C284.214,199.506 283.905,199.228 283.382,197.354 L283.079,196.265 L262.373,203.253 C250.984,207.096 239.007,211.157 235.756,212.277 C228.237,214.867 221.092,217.868 215.185,220.918 C212.396,222.357 212.013,222.917 211.888,225.74 C211.803,227.643 212.791,230.932 214.808,235.466 C216.064,238.29 216.344,240.11 215.669,241.041 C215.423,241.38 214.666,241.797 213.683,242.135 C211.796,242.786 211.797,242.786 210.201,239.515 C207.865,234.723 206.371,229.154 206.329,225.08 C206.313,223.446 206.424,223.091 207.364,221.768 C209.346,218.977 213.309,216.205 219.237,213.459 C220.69,212.787 226.94,210.511 233.763,208.169 C240.349,205.909 252.12,201.779 259.919,198.992 C268.999,195.748 276.665,193.156 281.23,191.787 C285.152,190.61 288.393,189.582 288.433,189.502 C288.596,189.165 285.164,188.764 283.238,188.895 C279.446,189.154 277.822,189.602 262.499,194.616 C254.14,197.352 240.565,201.761 232.331,204.414 C209.589,211.742 207.531,212.458 205.779,213.657 C202.682,215.774 200.187,218.243 198.315,221.042 C196.425,223.868 194.614,228.2 190.627,239.434 L186.325,251.556 L183.693,252.462 C181.47,253.227 181.062,253.303 181.074,252.945 z" fill="#FFFFFF" id="Logo_CCC"/>
    </g>
    <path d="M249.997,500 C112.264,500 0,387.737 0,250.003 C0,112.269 112.264,0 249.997,0 C387.731,0 500,112.269 500,250.003 C500,387.737 387.731,500 249.997,500 z M249.997,443.168 C357.018,443.168 443.168,357.024 443.168,250.003 C443.168,142.982 357.018,56.832 249.997,56.832 C142.978,56.832 56.832,142.982 56.832,250.003 C56.832,357.024 142.978,443.168 249.997,443.168 z" fill="#231F20" id="path20"/>
    <path d="M119.344,77.627 L122.223,75.505 C128.298,71.028 129.462,65.423 124.811,59.111 C119.84,52.366 113.946,52.875 107.714,57.468 L99.825,63.282 L121.743,93.024 L127.542,88.751 z M109.17,63.821 L110.195,63.066 C113.43,60.682 116.046,59.606 118.865,63.432 C121.714,67.298 120.413,69.414 116.981,71.943 L115.797,72.815 z" fill="#FFFFFF"/>
    <path d="M170.075,43.12 C165.28,33.247 155.075,28.834 145.158,33.65 C135.24,38.466 132.399,49.216 137.193,59.089 C141.946,68.874 152.016,73.571 162.154,68.647 C172.291,63.724 174.827,52.905 170.075,43.12 z M163.247,46.11 C165.73,51.222 166.234,58.767 159.05,62.256 C151.865,65.745 146.248,60.684 143.765,55.571 C141.153,50.193 142.135,43.017 148.261,40.041 C154.388,37.066 160.635,40.732 163.247,46.11 z" fill="#FFFFFF"/>
    <path d="M183.111,20.072 L176.194,22.081 L186.499,57.56 L203.204,52.708 L201.455,46.685 L191.667,49.528 z" fill="#FFFFFF"/>
    <path d="M210.948,13.71 L203.859,14.984 L210.395,51.348 L217.484,50.073 z" fill="#FFFFFF"/>
    <path d="M237.554,17.166 L244.985,16.669 L244.566,10.411 L222.516,11.888 L222.936,18.146 L230.367,17.648 L232.418,48.253 L239.605,47.772 z" fill="#FFFFFF"/>
    <path d="M263.443,10.964 L256.246,10.662 L254.694,47.575 L261.891,47.878 z" fill="#FFFFFF"/>
    <path d="M298.021,18.378 C296.193,15.552 291.95,13.232 288.709,12.71 C282.565,11.721 277.28,15.883 276.306,21.93 C275.395,27.59 278.448,30.514 282.829,33.204 C285.505,34.776 288.816,36.401 288.209,40.175 C287.757,42.981 285.57,45.16 282.668,44.692 C279.62,44.202 277.461,41.274 276.945,38.312 L271.625,42.071 C273.463,46.685 276.673,50.179 281.704,50.989 C289.154,52.188 294.535,47.744 295.71,40.439 C297.681,28.2 282.803,28.435 283.792,22.291 C284.174,19.921 286.631,18.53 288.905,18.896 C291.275,19.277 292.83,20.719 293.888,22.775 z" fill="#FFFFFF"/>
    <path d="M337.107,27.881 C335.166,25.793 332.715,24.155 329.971,23.245 C319.692,19.839 309.755,26.302 306.457,36.256 C303.251,45.931 307.732,56.862 317.593,60.13 C320.43,61.07 323.281,61.034 326.24,60.673 L328.938,52.533 C326.306,54.087 322.867,54.651 319.937,53.68 C313.565,51.568 311.615,44.366 313.573,38.459 C315.577,32.413 321.348,27.615 327.906,29.788 C330.836,30.759 333.258,33.11 334.394,36.068 z" fill="#FFFFFF"/>
    <path d="M351.962,49.394 L358.933,36.619 L352.61,33.169 L334.913,65.601 L341.236,69.051 L349.146,54.555 L360.845,60.939 L352.936,75.435 L359.259,78.885 L376.955,46.453 L370.632,43.003 L363.662,55.778 z" fill="#FFFFFF"/>
    <path d="M401.642,72.646 L405.522,67.718 L390.507,55.896 L367.652,84.925 L382.667,96.747 L386.547,91.819 L377.191,84.453 L383.375,76.599 L392.384,83.692 L396.263,78.764 L387.255,71.671 L392.286,65.28 z" fill="#FFFFFF"/>
    <path d="M158.582,463.516 L157.902,471.781 L164.889,475.001 L168.033,434.691 L162.959,432.353 L134.004,460.77 L140.902,463.948 L146.922,458.144 z M159.218,457.335 L151.252,453.664 L160.564,443.172 L160.653,443.213 z" fill="#FFFFFF"/>
    <path d="M193.511,461.262 L193.416,461.238 L197.128,446.105 L190.132,444.389 L181.332,480.272 L188.328,481.987 L192.284,465.855 L192.379,465.878 L199.892,484.824 L208.886,487.029 L199.253,464.183 L216.925,450.96 L208.311,448.848 z" fill="#FFFFFF"/>
    <path d="M239.836,459.116 L247.268,459.607 L247.681,453.348 L225.63,451.893 L225.217,458.152 L232.649,458.642 L230.63,489.25 L237.817,489.724 z" fill="#FFFFFF"/>
    <path d="M267.522,452.35 L260.336,452.85 L262.903,489.707 L270.088,489.207 z" fill="#FFFFFF"/>
    <path d="M319.728,460.929 C317.147,450.26 308.116,443.774 297.4,446.367 C286.684,448.96 281.618,458.857 284.199,469.525 C286.758,480.098 295.596,486.832 306.55,484.182 C317.504,481.531 322.286,471.501 319.728,460.929 z M312.42,462.394 C313.757,467.919 312.642,475.398 304.879,477.276 C297.116,479.155 292.706,473.013 291.369,467.488 C289.963,461.678 292.451,454.875 299.071,453.273 C305.691,451.671 311.014,456.584 312.42,462.394 z" fill="#FFFFFF"/>
    <path d="M341.528,472.411 L347.996,469.241 L336.956,446.713 L337.044,446.67 L365.875,461.298 L370.539,459.012 L353.958,425.176 L347.49,428.345 L358.422,450.654 L358.334,450.697 L329.502,436.069 L324.838,438.354 z" fill="#FFFFFF"/>
  </g>
</svg>
